<?xml version="1.0" encoding="utf-8"?>
<!-- Generator: Adobe Illustrator 27.5.0, SVG Export Plug-In . SVG Version: 6.00 Build 0)  -->
<svg version="1.1" xmlns="http://www.w3.org/2000/svg" xmlns:xlink="http://www.w3.org/1999/xlink" x="0px" y="0px"
	 viewBox="0 0 500 500" style="enable-background:new 0 0 500 500;" xml:space="preserve">
<g id="BACKGROUND">
	<rect style="fill:#FFFFFF;" width="500" height="500"/>
</g>
<g id="OBJECTS">
	<g>
		
			<linearGradient id="SVGID_1_" gradientUnits="userSpaceOnUse" x1="101.6131" y1="151.7711" x2="286.1525" y2="151.7711" gradientTransform="matrix(0.866 0.5 0 1.1547 23.9592 -111.9869)">
			<stop  offset="0.0425" style="stop-color:#E3EBFF"/>
			<stop  offset="1" style="stop-color:#DCE4F9"/>
		</linearGradient>
		<path style="fill:none;stroke:url(#SVGID_1_);stroke-width:1.104;stroke-miterlimit:10;" d="M254.626,271.22l-136.638-78.888
			c-3.437-1.984-5.554-5.652-5.554-9.62V58.809c0-8.551,9.257-13.896,16.663-9.62l136.638,78.888
			c3.437,1.984,5.554,5.652,5.554,9.62V261.6C271.289,270.151,262.032,275.496,254.626,271.22z"/>
		
			<linearGradient id="SVGID_00000103253701203344890300000005528051399869040567_" gradientUnits="userSpaceOnUse" x1="253.0192" y1="228.9605" x2="437.5586" y2="228.9605" gradientTransform="matrix(0.866 0.5 0 1.1547 23.9592 -111.9869)">
			<stop  offset="0.0425" style="stop-color:#E3EBFF"/>
			<stop  offset="1" style="stop-color:#DCE4F9"/>
		</linearGradient>
		
			<path style="fill:none;stroke:url(#SVGID_00000103253701203344890300000005528051399869040567_);stroke-width:1.104;stroke-miterlimit:10;" d="
			M385.744,436.054l-136.638-78.888c-3.437-1.984-5.554-5.651-5.554-9.62V223.643c0-8.551,9.257-13.896,16.663-9.62l136.638,78.888
			c3.437,1.984,5.554,5.652,5.554,9.62v123.902C402.407,434.985,393.15,440.329,385.744,436.054z"/>
		<g>
			<g>
				<g style="enable-background:new    ;">
					<g>
						
							<linearGradient id="SVGID_00000152256660915699691040000006148363816002718652_" gradientUnits="userSpaceOnUse" x1="183.3509" y1="375.563" x2="228.4559" y2="375.563">
							<stop  offset="0" style="stop-color:#0763BD"/>
							<stop  offset="1" style="stop-color:#172A7C"/>
						</linearGradient>
						<polygon style="fill:url(#SVGID_00000152256660915699691040000006148363816002718652_);" points="228.456,391.685 
							183.368,365.483 183.351,359.441 228.439,385.643 						"/>
					</g>
					<g>
						
							<linearGradient id="SVGID_00000163784167774542440330000008538010220311622071_" gradientUnits="userSpaceOnUse" x1="228.4388" y1="347.2904" x2="273.6542" y2="347.2904">
							<stop  offset="0" style="stop-color:#0763BD"/>
							<stop  offset="1" style="stop-color:#172A7C"/>
						</linearGradient>
						<path style="fill:url(#SVGID_00000163784167774542440330000008538010220311622071_);" d="M273.532,302.896l0.122,42.907
							c0.032,11.388-8.003,25.305-17.913,31.027l-27.285,14.856l-0.017-6.042l27.285-14.856
							c7.012-4.049,12.699-13.893,12.676-21.951l-0.122-42.907L273.532,302.896z"/>
					</g>
					
						<linearGradient id="SVGID_00000109022763591059987550000008833292462224080262_" gradientUnits="userSpaceOnUse" x1="183.3509" y1="332.6849" x2="268.4003" y2="332.6849">
						<stop  offset="0.0425" style="stop-color:#E3EBFF"/>
						<stop  offset="1" style="stop-color:#978EF0"/>
					</linearGradient>
					<path style="fill:url(#SVGID_00000109022763591059987550000008833292462224080262_);" d="M268.279,305.929l-45.088-26.202
						l0.122,42.907c0.023,8.058-5.664,17.903-12.676,21.951l-27.285,14.856l45.088,26.202l27.285-14.856
						c7.012-4.049,12.699-13.893,12.676-21.951L268.279,305.929z"/>
					<g>
						
							<linearGradient id="SVGID_00000003094348041746334030000008433777285662677132_" gradientUnits="userSpaceOnUse" x1="223.1907" y1="291.3112" x2="273.5324" y2="291.3112">
							<stop  offset="0" style="stop-color:#0763BD"/>
							<stop  offset="1" style="stop-color:#172A7C"/>
						</linearGradient>
						<polygon style="fill:url(#SVGID_00000003094348041746334030000008433777285662677132_);" points="268.279,305.929 
							223.191,279.727 228.445,276.693 273.532,302.896 						"/>
					</g>
				</g>
			</g>
			<g>
				<g>
					
						<linearGradient id="SVGID_00000067232744837280631370000008107548018127146401_" gradientUnits="userSpaceOnUse" x1="44.6237" y1="301.2506" x2="464.3435" y2="224.2547">
						<stop  offset="0.0425" style="stop-color:#E3EBFF"/>
						<stop  offset="1" style="stop-color:#978EF0"/>
					</linearGradient>
					<path style="fill:url(#SVGID_00000067232744837280631370000008107548018127146401_);" d="M352.159,233.826
						c4.028,2.326,7.283,7.963,7.269,12.597l-0.415,146.263c-0.013,4.635-3.289,6.501-7.317,4.176L166.456,289.913
						c-4.033-2.329-7.288-7.966-7.275-12.6l0.415-146.263c0.013-4.634,3.289-6.501,7.322-4.173L352.159,233.826z"/>
					
						<linearGradient id="SVGID_00000065759354088509060560000008369967372707361678_" gradientUnits="userSpaceOnUse" x1="62.4092" y1="297.9874" x2="447.3572" y2="227.3702">
						<stop  offset="0" style="stop-color:#0763BD"/>
						<stop  offset="1" style="stop-color:#172A7C"/>
					</linearGradient>
					<path style="fill:url(#SVGID_00000065759354088509060560000008369967372707361678_);" d="M170.662,282.628
						c-1.41-0.814-3.074-3.682-3.069-5.292l0.397-140.126l179.963,103.9c1.408,0.813,3.069,3.68,3.064,5.289l-0.398,140.125
						L170.662,282.628z"/>
					
						<linearGradient id="SVGID_00000163072093161996108990000012285781321347119015_" gradientUnits="userSpaceOnUse" x1="161.7242" y1="259.3828" x2="367.1355" y2="259.3828">
						<stop  offset="0" style="stop-color:#0763BD"/>
						<stop  offset="1" style="stop-color:#172A7C"/>
					</linearGradient>
					<path style="fill:url(#SVGID_00000163072093161996108990000012285781321347119015_);" d="M359.866,229.347L174.625,122.398
						c-2.03-1.172-3.867-1.281-5.194-0.51l-7.707,4.479c1.327-0.771,3.165-0.662,5.194,0.51l185.241,106.949
						c4.028,2.326,7.283,7.963,7.269,12.597l-0.415,146.263c-0.007,2.303-0.819,3.923-2.129,4.684l7.707-4.479
						c1.31-0.761,2.122-2.381,2.129-4.684l0.415-146.263C367.149,237.31,363.894,231.672,359.866,229.347z"/>
				</g>
			</g>
		</g>
		<g>
			<g>
				<g style="enable-background:new    ;">
					<g>
						
							<linearGradient id="SVGID_00000015353205562050081660000001550858559953610943_" gradientUnits="userSpaceOnUse" x1="241.5284" y1="157.5293" x2="241.5284" y2="214.7238">
							<stop  offset="0.0425" style="stop-color:#E3EBFF"/>
							<stop  offset="1" style="stop-color:#978EF0"/>
						</linearGradient>
						<polygon style="fill:url(#SVGID_00000015353205562050081660000001550858559953610943_);" points="239.885,180.675 
							243.266,178.71 243.171,212.196 239.79,214.161 						"/>
					</g>
					<g>
						
							<linearGradient id="SVGID_00000127033095128715933360000009195860708734465687_" gradientUnits="userSpaceOnUse" x1="70.7003" y1="131.3373" x2="243.2665" y2="131.3373">
							<stop  offset="0.0425" style="stop-color:#E3EBFF"/>
							<stop  offset="1" style="stop-color:#978EF0"/>
						</linearGradient>
						<polygon style="fill:url(#SVGID_00000127033095128715933360000009195860708734465687_);" points="70.7,83.965 74.082,82 
							243.266,178.71 239.885,180.675 						"/>
					</g>
					<g>
						
							<linearGradient id="SVGID_00000153692181208404645790000007695566261893161883_" gradientUnits="userSpaceOnUse" x1="70.6053" y1="149.0629" x2="239.8851" y2="149.0629">
							<stop  offset="0.0425" style="stop-color:#E3EBFF"/>
							<stop  offset="1" style="stop-color:#DCE4F9"/>
						</linearGradient>
						<polygon style="fill:url(#SVGID_00000153692181208404645790000007695566261893161883_);" points="239.885,180.675 
							239.79,214.161 70.605,117.451 70.7,83.965 						"/>
						<polygon style="fill:#FFFFFF;" points="72.879,116.136 72.96,87.872 237.611,181.99 237.531,210.254 						"/>
						
							<linearGradient id="SVGID_00000010277513881861907110000007387373736958533513_" gradientUnits="userSpaceOnUse" x1="72.8794" y1="116.4121" x2="136.3379" y2="116.4121">
							<stop  offset="0" style="stop-color:#0763BD"/>
							<stop  offset="1" style="stop-color:#172A7C"/>
						</linearGradient>
						<polygon style="fill:url(#SVGID_00000010277513881861907110000007387373736958533513_);" points="72.96,87.872 
							72.879,116.136 123.291,144.952 123.291,116.642 						"/>
					</g>
				</g>
			</g>
			
				<text transform="matrix(0.8715 0.5031 0 1 80.1535 108.6978)" style="fill:#FFFFFF; font-family:'Montserrat-Bold'; font-size:11.1481px;">https://</text>
		</g>
		<g>
			<g>
				<g>
					
						<linearGradient id="SVGID_00000068679690350324217030000016399392749624120758_" gradientUnits="userSpaceOnUse" x1="206.4949" y1="269.3711" x2="386.7757" y2="269.3711" gradientTransform="matrix(0.866 0.5 0.5 1.4434 -119.0541 -404.0207)">
						<stop  offset="0.0425" style="stop-color:#E3EBFF"/>
						<stop  offset="1" style="stop-color:#DCE4F9"/>
					</linearGradient>
					<path style="fill:url(#SVGID_00000068679690350324217030000016399392749624120758_);" d="M326.04,213.806l-107.045-61.802
						c-2.839-1.639-5.163-6.078-5.163-9.864V56.311c0-3.786,2.323-5.542,5.163-3.903L326.04,114.21
						c2.839,1.639,5.163,6.078,5.163,9.864v85.829C331.202,213.689,328.879,215.446,326.04,213.806z"/>
					
						<linearGradient id="SVGID_00000106869026389836255790000009017572173404653478_" gradientUnits="userSpaceOnUse" x1="264.9997" y1="82.1884" x2="355.4476" y2="217.86">
						<stop  offset="0" style="stop-color:#0763BD"/>
						<stop  offset="1" style="stop-color:#172A7C"/>
					</linearGradient>
					<path style="fill:url(#SVGID_00000106869026389836255790000009017572173404653478_);" d="M325.637,113.978L219.398,52.64
						c-3.061-1.767-5.565-0.339-5.565,3.173v10.591l117.37,67.763v-10.591C331.202,120.064,328.698,115.745,325.637,113.978z"/>
					<g>
						
							<linearGradient id="SVGID_00000171714419678025320330000017728169595613149115_" gradientUnits="userSpaceOnUse" x1="266.7111" y1="223.1067" x2="284.0518" y2="240.4474" gradientTransform="matrix(0.866 0.5 0 1.1547 64.495 -298.246)">
							<stop  offset="0" style="stop-color:#FFE30B"/>
							<stop  offset="1" style="stop-color:#FF712F"/>
						</linearGradient>
						<path style="fill:url(#SVGID_00000171714419678025320330000017728169595613149115_);" d="M306.808,111.595
							c0,1.333-0.942,1.87-2.104,1.2c-1.162-0.671-2.104-2.296-2.104-3.629c0-1.333,0.942-1.87,2.104-1.2
							C305.866,108.637,306.808,110.261,306.808,111.595z"/>
						
							<linearGradient id="SVGID_00000154422642962547674130000018002383918842253957_" gradientUnits="userSpaceOnUse" x1="276.515" y1="223.1067" x2="293.8556" y2="240.4472" gradientTransform="matrix(0.866 0.5 0 1.1547 64.495 -298.246)">
							<stop  offset="0" style="stop-color:#FFE30B"/>
							<stop  offset="1" style="stop-color:#FF712F"/>
						</linearGradient>
						<path style="fill:url(#SVGID_00000154422642962547674130000018002383918842253957_);" d="M315.298,116.497
							c0,1.333-0.942,1.871-2.104,1.2c-1.162-0.671-2.104-2.296-2.104-3.629c0-1.333,0.942-1.87,2.104-1.2
							C314.356,113.538,315.298,115.163,315.298,116.497z"/>
						
							<linearGradient id="SVGID_00000007419506661881326080000003854721096354997412_" gradientUnits="userSpaceOnUse" x1="286.3188" y1="223.1064" x2="303.6595" y2="240.4471" gradientTransform="matrix(0.866 0.5 0 1.1547 64.495 -298.246)">
							<stop  offset="0" style="stop-color:#FFE30B"/>
							<stop  offset="1" style="stop-color:#FF712F"/>
						</linearGradient>
						<path style="fill:url(#SVGID_00000007419506661881326080000003854721096354997412_);" d="M323.788,121.398
							c0,1.333-0.942,1.87-2.104,1.2c-1.162-0.671-2.104-2.296-2.104-3.629c0-1.333,0.942-1.87,2.104-1.2
							C322.846,118.44,323.788,120.065,323.788,121.398z"/>
					</g>
				</g>
				<polygon style="fill:#FFFFFF;" points="318.138,201.752 225.354,148.183 225.354,83.574 318.138,137.143 				"/>
			</g>
			<g>
				
					<linearGradient id="SVGID_00000072280737589514646440000001628532756012646812_" gradientUnits="userSpaceOnUse" x1="193.6271" y1="228.9814" x2="226.9248" y2="228.9814" gradientTransform="matrix(0.866 0.5 0 1.1547 63.5401 -248.5603)">
					<stop  offset="0.0425" style="stop-color:#E3EBFF"/>
					<stop  offset="1" style="stop-color:#DCE4F9"/>
				</linearGradient>
				<polygon style="fill:url(#SVGID_00000072280737589514646440000001628532756012646812_);" points="260.057,143.401 
					231.221,126.753 231.221,98.564 260.057,115.213 				"/>
				
					<linearGradient id="SVGID_00000086682855276143637200000016077669269124808885_" gradientUnits="userSpaceOnUse" x1="233.4752" y1="217.5686" x2="284.2591" y2="217.5686" gradientTransform="matrix(0.866 0.5 0 1.1547 63.5401 -248.5603)">
					<stop  offset="0.0425" style="stop-color:#E3EBFF"/>
					<stop  offset="1" style="stop-color:#DCE4F9"/>
				</linearGradient>
				<polygon style="fill:url(#SVGID_00000086682855276143637200000016077669269124808885_);" points="309.708,145.712 
					265.73,120.321 265.73,118.488 309.708,143.879 				"/>
				
					<linearGradient id="SVGID_00000042016869245174889780000015895262044506618042_" gradientUnits="userSpaceOnUse" x1="233.4752" y1="224.6151" x2="284.2591" y2="224.6151" gradientTransform="matrix(0.866 0.5 0 1.1547 63.5401 -248.5603)">
					<stop  offset="0.0425" style="stop-color:#E3EBFF"/>
					<stop  offset="1" style="stop-color:#DCE4F9"/>
				</linearGradient>
				<polygon style="fill:url(#SVGID_00000042016869245174889780000015895262044506618042_);" points="309.708,153.848 
					265.73,128.457 265.73,126.624 309.708,152.016 				"/>
				
					<linearGradient id="SVGID_00000103966270350381240900000001317385825379638924_" gradientUnits="userSpaceOnUse" x1="233.4752" y1="231.6616" x2="284.2591" y2="231.6616" gradientTransform="matrix(0.866 0.5 0 1.1547 63.5401 -248.5603)">
					<stop  offset="0.0425" style="stop-color:#E3EBFF"/>
					<stop  offset="1" style="stop-color:#DCE4F9"/>
				</linearGradient>
				<polygon style="fill:url(#SVGID_00000103966270350381240900000001317385825379638924_);" points="309.708,161.985 
					265.73,136.594 265.73,134.761 309.708,160.152 				"/>
				
					<linearGradient id="SVGID_00000117650199422799001520000006282247877984420536_" gradientUnits="userSpaceOnUse" x1="233.4752" y1="238.7081" x2="284.2591" y2="238.7081" gradientTransform="matrix(0.866 0.5 0 1.1547 63.5401 -248.5603)">
					<stop  offset="0.0425" style="stop-color:#E3EBFF"/>
					<stop  offset="1" style="stop-color:#DCE4F9"/>
				</linearGradient>
				<polygon style="fill:url(#SVGID_00000117650199422799001520000006282247877984420536_);" points="309.708,170.122 
					265.73,144.73 265.73,142.898 309.708,168.289 				"/>
				
					<linearGradient id="SVGID_00000085954212244962414130000014131483893211196335_" gradientUnits="userSpaceOnUse" x1="193.6271" y1="245.7549" x2="284.2591" y2="245.7549" gradientTransform="matrix(0.866 0.5 0 1.1547 63.5401 -248.5603)">
					<stop  offset="0.0425" style="stop-color:#E3EBFF"/>
					<stop  offset="1" style="stop-color:#DCE4F9"/>
				</linearGradient>
				<polygon style="fill:url(#SVGID_00000085954212244962414130000014131483893211196335_);" points="309.708,178.258 
					231.221,132.944 231.221,131.111 309.708,176.425 				"/>
				
					<linearGradient id="SVGID_00000145060553321392464260000009950034695391078333_" gradientUnits="userSpaceOnUse" x1="193.6271" y1="252.8014" x2="284.2591" y2="252.8014" gradientTransform="matrix(0.866 0.5 0 1.1547 63.5401 -248.5603)">
					<stop  offset="0.0425" style="stop-color:#E3EBFF"/>
					<stop  offset="1" style="stop-color:#DCE4F9"/>
				</linearGradient>
				<polygon style="fill:url(#SVGID_00000145060553321392464260000009950034695391078333_);" points="309.708,186.395 
					231.221,141.08 231.221,139.247 309.708,184.562 				"/>
				
					<linearGradient id="SVGID_00000109009788167681999800000014362615204475073692_" gradientUnits="userSpaceOnUse" x1="193.6271" y1="259.8479" x2="284.2591" y2="259.8479" gradientTransform="matrix(0.866 0.5 0 1.1547 63.5401 -248.5603)">
					<stop  offset="0.0425" style="stop-color:#E3EBFF"/>
					<stop  offset="1" style="stop-color:#DCE4F9"/>
				</linearGradient>
				<polygon style="fill:url(#SVGID_00000109009788167681999800000014362615204475073692_);" points="309.708,194.531 
					231.221,149.217 231.221,147.384 309.708,192.699 				"/>
			</g>
		</g>
		<g>
			<g>
				<g style="enable-background:new    ;">
					<g>
						
							<linearGradient id="SVGID_00000002356071881609385280000014575742786510614448_" gradientUnits="userSpaceOnUse" x1="204.4462" y1="114.1763" x2="243.7822" y2="153.5123">
							<stop  offset="0" style="stop-color:#FFE30B"/>
							<stop  offset="1" style="stop-color:#FF712F"/>
						</linearGradient>
						<polygon style="fill:url(#SVGID_00000002356071881609385280000014575742786510614448_);" points="218.157,141.733 
							222.159,139.407 251.023,146.908 247.021,149.233 						"/>
					</g>
					<g>
						
							<linearGradient id="SVGID_00000173869402885061006750000017227533648322044063_" gradientUnits="userSpaceOnUse" x1="226.4412" y1="92.6635" x2="260.722" y2="248.596">
							<stop  offset="0" style="stop-color:#FFE30B"/>
							<stop  offset="1" style="stop-color:#FF712F"/>
						</linearGradient>
						<path style="fill:url(#SVGID_00000173869402885061006750000017227533648322044063_);" d="M247.021,149.233l28.813,25.799
							c-6.308,19.889,7.462,29.575,2.892,44.77c-4.57,15.196-30.559,8.191-31.927,7.823c-1.365-1.209-27.308-24.188-31.777-44.602
							c-4.469-20.415,9.311-14.194,3.136-41.291L247.021,149.233z"/>
					</g>
					<g>
						
							<linearGradient id="SVGID_00000057128656576616160070000002194168476269034890_" gradientUnits="userSpaceOnUse" x1="229.6526" y1="127.1943" x2="272.2135" y2="169.7551">
							<stop  offset="0" style="stop-color:#FFE30B"/>
							<stop  offset="1" style="stop-color:#FF712F"/>
						</linearGradient>
						<polygon style="fill:url(#SVGID_00000057128656576616160070000002194168476269034890_);" points="247.021,149.233 
							251.023,146.908 279.836,172.707 275.834,175.033 						"/>
					</g>
					<g>
						
							<linearGradient id="SVGID_00000026848150685997229650000008831259283876891797_" gradientUnits="userSpaceOnUse" x1="322.175" y1="245.5146" x2="279.1002" y2="202.4397">
							<stop  offset="0" style="stop-color:#FFE30B"/>
							<stop  offset="1" style="stop-color:#FF712F"/>
						</linearGradient>
						<path style="fill:url(#SVGID_00000026848150685997229650000008831259283876891797_);" d="M277.103,224.584l-4.002,2.326
							c2.583-1.501,4.621-3.768,5.625-7.106c4.57-15.196-9.2-24.881-2.892-44.77l4.002-2.326
							c-6.308,19.889,7.461,29.575,2.891,44.77C281.724,220.816,279.686,223.083,277.103,224.584z"/>
					</g>
				</g>
			</g>
			<polygon style="fill:#FFFFFF;" points="224.496,171.333 246.443,205.855 296.087,171.333 246.443,190.483 			"/>
		</g>
		
			<text transform="matrix(0.8715 0.5031 0 1 192.7156 257.071)" style="fill:#BAB8F9; font-family:'Montserrat-Bold'; font-size:82.5554px;">SSL</text>
		<g>
			<g>
				<g style="enable-background:new    ;">
					<g>
						
							<linearGradient id="SVGID_00000146484029392221868850000011019568824300644241_" gradientUnits="userSpaceOnUse" x1="420.1986" y1="200.4694" x2="420.1986" y2="349.9974">
							<stop  offset="0.0425" style="stop-color:#E3EBFF"/>
							<stop  offset="1" style="stop-color:#978EF0"/>
						</linearGradient>
						<polygon style="fill:url(#SVGID_00000146484029392221868850000011019568824300644241_);" points="416.902,290.36 
							423.686,286.417 423.495,343.699 416.711,347.642 						"/>
					</g>
					<g>
						
							<linearGradient id="SVGID_00000181052691043949140590000002869226493221099172_" gradientUnits="userSpaceOnUse" x1="315.8951" y1="259.2302" x2="423.686" y2="259.2302">
							<stop  offset="0.0425" style="stop-color:#E3EBFF"/>
							<stop  offset="1" style="stop-color:#978EF0"/>
						</linearGradient>
						<polygon style="fill:url(#SVGID_00000181052691043949140590000002869226493221099172_);" points="315.895,232.043 
							322.679,228.101 423.686,286.417 416.902,290.36 						"/>
					</g>
					<g>
						
							<linearGradient id="SVGID_00000075150480065499801740000014137933388291517858_" gradientUnits="userSpaceOnUse" x1="315.7046" y1="289.8424" x2="416.9017" y2="289.8424">
							<stop  offset="0.0425" style="stop-color:#E3EBFF"/>
							<stop  offset="1" style="stop-color:#DCE4F9"/>
						</linearGradient>
						<polygon style="fill:url(#SVGID_00000075150480065499801740000014137933388291517858_);" points="416.902,290.36 
							416.711,347.642 315.705,289.325 315.895,232.043 						"/>
					</g>
				</g>
			</g>
			<g>
				<path style="fill:#FFFFFF;" d="M406.272,308.868l-66.122-38.175c-2.33-1.345-4.219-4.954-4.219-8.061l0,0
					c0-3.107,1.889-4.535,4.219-3.19l66.122,38.175c2.33,1.345,4.219,4.954,4.219,8.061l0,0
					C410.491,308.785,408.602,310.213,406.272,308.868z"/>
				<path style="fill:#FFFFFF;" d="M406.272,328.55l-66.122-38.175c-2.33-1.345-4.219-4.954-4.219-8.061l0,0
					c0-3.107,1.889-4.535,4.219-3.189l66.122,38.175c2.33,1.345,4.219,4.954,4.219,8.061v0
					C410.491,328.467,408.602,329.896,406.272,328.55z"/>
				
					<linearGradient id="SVGID_00000164502584153203621610000002066078268977516442_" gradientUnits="userSpaceOnUse" x1="346.6765" y1="319.1595" x2="333.6035" y2="272.5406">
					<stop  offset="0.0425" style="stop-color:#E3EBFF"/>
					<stop  offset="1" style="stop-color:#978EF0"/>
				</linearGradient>
				<path style="fill:url(#SVGID_00000164502584153203621610000002066078268977516442_);" d="M330.476,255.602
					c0,1.227-0.867,1.721-1.936,1.104c-1.069-0.617-1.936-2.112-1.936-3.339c0-1.227,0.867-1.721,1.936-1.104
					C329.609,252.88,330.476,254.375,330.476,255.602z"/>
				
					<linearGradient id="SVGID_00000038377889265088601570000003187074610452121733_" gradientUnits="userSpaceOnUse" x1="344.6327" y1="319.7336" x2="331.5595" y2="273.1141">
					<stop  offset="0.0425" style="stop-color:#E3EBFF"/>
					<stop  offset="1" style="stop-color:#978EF0"/>
				</linearGradient>
				<path style="fill:url(#SVGID_00000038377889265088601570000003187074610452121733_);" d="M332.261,265.777l-7.441-4.296V259.9
					c0-2.542,1.545-3.71,3.452-2.609l0.538,0.311c1.906,1.101,3.451,4.053,3.451,6.595V265.777z"/>
				
					<linearGradient id="SVGID_00000173140659358185091420000012147782364263652027_" gradientUnits="userSpaceOnUse" x1="338.9991" y1="318.2311" x2="325.926" y2="271.6116">
					<stop  offset="0.0425" style="stop-color:#E3EBFF"/>
					<stop  offset="1" style="stop-color:#978EF0"/>
				</linearGradient>
				<path style="fill:url(#SVGID_00000173140659358185091420000012147782364263652027_);" d="M331.219,277.988v-1.331
					c0-1.605-1.02-3.629-2.411-4.588c-1.597-1.101-2.947-0.438-2.947,1.358v1.467c-0.846,0.366-1.382,1.304-1.382,2.698v3.083
					c0,0.647,0.457,1.436,1.021,1.762l6.08,3.51c0.564,0.326,1.021,0.065,1.021-0.582v-3.083
					C332.602,280.888,332.065,279.331,331.219,277.988z M328.953,279.827v2.651c0,0.262-0.185,0.367-0.413,0.235l0,0
					c-0.228-0.132-0.413-0.451-0.413-0.712v-2.651c-0.228-0.292-0.381-0.666-0.381-0.995c0-0.503,0.355-0.706,0.794-0.453
					c0.439,0.253,0.794,0.866,0.794,1.37C329.334,279.601,329.181,279.798,328.953,279.827z M330.199,276.645
					c-0.507-0.554-1.067-1.026-1.659-1.367c-0.592-0.342-1.152-0.517-1.659-0.548v-0.713c0-1.049,0.744-1.474,1.659-0.946
					c0.915,0.528,1.659,1.812,1.659,2.861V276.645z"/>
				<g>
					<path style="fill:#898888;" d="M348.676,268.634v0.741l0.556-0.057l0.131,0.357l-0.568,0.036l0.568,0.69l-0.131,0.206
						l-0.562-0.701l0.006,0.744l-0.263-0.152l0.006-0.737l-0.561,0.053l-0.132-0.357l0.562-0.039l-0.562-0.688l0.132-0.212
						l0.561,0.708l-0.006-0.744L348.676,268.634z"/>
					<path style="fill:#898888;" d="M351.24,270.115v0.741l0.556-0.057l0.131,0.357l-0.568,0.036l0.568,0.691l-0.131,0.206
						l-0.562-0.701l0.006,0.744l-0.263-0.152l0.006-0.737l-0.561,0.053l-0.132-0.357l0.562-0.038l-0.562-0.688l0.132-0.212
						l0.561,0.708l-0.006-0.744L351.24,270.115z"/>
					<path style="fill:#898888;" d="M353.805,271.596v0.741l0.556-0.057l0.131,0.357l-0.568,0.036l0.568,0.691l-0.131,0.206
						l-0.562-0.701l0.006,0.744l-0.263-0.152l0.006-0.737l-0.562,0.053l-0.132-0.357l0.562-0.039l-0.562-0.688l0.132-0.212
						l0.562,0.708l-0.006-0.744L353.805,271.596z"/>
					<path style="fill:#898888;" d="M356.37,273.077v0.741l0.556-0.057l0.131,0.357l-0.568,0.036l0.568,0.69l-0.131,0.206
						l-0.562-0.701l0.006,0.744l-0.263-0.152l0.006-0.737l-0.562,0.053l-0.132-0.357l0.562-0.039l-0.562-0.688l0.132-0.212
						l0.562,0.708l-0.006-0.744L356.37,273.077z"/>
					<path style="fill:#898888;" d="M358.934,274.557v0.741l0.556-0.057l0.131,0.357l-0.568,0.036l0.568,0.691l-0.131,0.205
						l-0.562-0.701l0.006,0.744l-0.263-0.152l0.006-0.737l-0.561,0.053l-0.132-0.357l0.562-0.039l-0.562-0.688l0.132-0.212
						l0.561,0.708l-0.006-0.744L358.934,274.557z"/>
					<path style="fill:#898888;" d="M361.499,276.038v0.741l0.556-0.057l0.131,0.357l-0.568,0.036l0.568,0.69l-0.131,0.206
						l-0.562-0.701l0.006,0.744l-0.263-0.152l0.006-0.737l-0.561,0.053l-0.132-0.357l0.562-0.039l-0.562-0.688l0.132-0.212
						l0.561,0.708l-0.006-0.744L361.499,276.038z"/>
					<path style="fill:#898888;" d="M364.064,277.519v0.741l0.556-0.057l0.131,0.357l-0.568,0.036l0.568,0.691l-0.131,0.206
						l-0.562-0.701l0.006,0.744l-0.263-0.152l0.006-0.737l-0.561,0.053l-0.132-0.357l0.562-0.039l-0.562-0.688l0.132-0.212
						l0.561,0.708l-0.006-0.744L364.064,277.519z"/>
					<path style="fill:#898888;" d="M366.628,278.999v0.741l0.556-0.057l0.131,0.357l-0.568,0.036l0.568,0.691l-0.131,0.205
						l-0.562-0.701l0.006,0.744l-0.263-0.152l0.006-0.737l-0.561,0.053l-0.132-0.357l0.562-0.039l-0.562-0.688l0.132-0.212
						l0.561,0.708l-0.006-0.744L366.628,278.999z"/>
					<path style="fill:#898888;" d="M369.193,280.48v0.741l0.556-0.057l0.131,0.357l-0.568,0.036l0.568,0.69l-0.131,0.206
						l-0.562-0.701l0.006,0.744l-0.263-0.152l0.006-0.737l-0.561,0.053l-0.132-0.357l0.562-0.039l-0.562-0.688l0.132-0.212
						l0.561,0.708l-0.006-0.744L369.193,280.48z"/>
					<path style="fill:#898888;" d="M371.758,281.961v0.741l0.556-0.057l0.131,0.357l-0.568,0.036l0.568,0.691l-0.131,0.206
						l-0.562-0.701l0.006,0.744l-0.263-0.152l0.006-0.737l-0.561,0.053l-0.132-0.357l0.562-0.039l-0.562-0.688l0.132-0.212
						l0.561,0.708l-0.006-0.744L371.758,281.961z"/>
					<path style="fill:#898888;" d="M374.323,283.442v0.741l0.556-0.057l0.131,0.357l-0.568,0.036l0.568,0.69l-0.131,0.206
						l-0.562-0.701l0.006,0.744l-0.263-0.152l0.006-0.737l-0.561,0.053l-0.132-0.357l0.562-0.039l-0.562-0.688l0.132-0.212
						l0.561,0.708l-0.006-0.744L374.323,283.442z"/>
					<path style="fill:#898888;" d="M376.887,284.922v0.741l0.556-0.057l0.131,0.357L377.007,286l0.568,0.691l-0.131,0.206
						l-0.562-0.701l0.006,0.744l-0.263-0.152l0.006-0.737l-0.561,0.053l-0.132-0.357l0.562-0.039l-0.562-0.688l0.132-0.212
						l0.561,0.708l-0.006-0.744L376.887,284.922z"/>
					<path style="fill:#898888;" d="M379.452,286.403v0.741l0.556-0.057l0.131,0.357l-0.568,0.036l0.568,0.691l-0.131,0.206
						l-0.562-0.701l0.006,0.744l-0.263-0.152l0.006-0.737l-0.561,0.053l-0.132-0.357l0.562-0.039l-0.562-0.688l0.132-0.212
						l0.561,0.708l-0.006-0.744L379.452,286.403z"/>
					<path style="fill:#898888;" d="M382.017,287.884v0.741l0.556-0.057l0.131,0.357l-0.568,0.036l0.568,0.69l-0.131,0.206
						l-0.562-0.701l0.006,0.744l-0.263-0.152l0.006-0.737l-0.561,0.053l-0.132-0.357l0.562-0.039l-0.562-0.688l0.132-0.212
						l0.561,0.708l-0.006-0.744L382.017,287.884z"/>
					<path style="fill:#898888;" d="M384.581,289.365v0.741l0.556-0.057l0.131,0.357l-0.568,0.036l0.568,0.69l-0.131,0.206
						l-0.562-0.701l0.006,0.744l-0.263-0.152l0.006-0.737l-0.561,0.053l-0.132-0.357l0.562-0.039l-0.562-0.688l0.132-0.212
						l0.561,0.708l-0.006-0.744L384.581,289.365z"/>
					<path style="fill:#898888;" d="M387.146,290.845v0.741l0.556-0.057l0.131,0.357l-0.568,0.036l0.568,0.691l-0.131,0.206
						l-0.562-0.701l0.006,0.744l-0.263-0.152l0.006-0.737l-0.561,0.053l-0.132-0.357l0.562-0.039l-0.562-0.688l0.132-0.212
						l0.561,0.708l-0.006-0.744L387.146,290.845z"/>
					<path style="fill:#898888;" d="M389.711,292.326v0.741l0.556-0.057l0.131,0.357l-0.568,0.036l0.568,0.691l-0.131,0.206
						l-0.562-0.701l0.006,0.744l-0.263-0.152l0.006-0.737l-0.561,0.053l-0.132-0.357l0.562-0.039l-0.562-0.688l0.132-0.212
						l0.561,0.708l-0.006-0.744L389.711,292.326z"/>
					<path style="fill:#898888;" d="M392.275,293.807v0.741l0.556-0.057l0.131,0.357l-0.568,0.036l0.568,0.69l-0.131,0.206
						l-0.562-0.701l0.006,0.744l-0.263-0.152l0.006-0.737l-0.561,0.053l-0.132-0.357l0.562-0.039l-0.562-0.688l0.132-0.212
						l0.561,0.708l-0.006-0.744L392.275,293.807z"/>
					<path style="fill:#898888;" d="M394.84,295.287v0.741l0.556-0.057l0.131,0.357l-0.568,0.036l0.568,0.691l-0.131,0.206
						l-0.562-0.701l0.006,0.744l-0.263-0.152l0.006-0.737l-0.562,0.053l-0.132-0.357l0.562-0.039l-0.562-0.688l0.132-0.212
						l0.562,0.708l-0.006-0.744L394.84,295.287z"/>
					<path style="fill:#898888;" d="M397.405,296.768v0.741l0.556-0.057l0.131,0.357l-0.567,0.036l0.567,0.69l-0.131,0.206
						l-0.562-0.701l0.006,0.744l-0.263-0.152l0.006-0.737l-0.561,0.053l-0.132-0.357l0.562-0.039l-0.562-0.688l0.132-0.212
						l0.561,0.708l-0.006-0.744L397.405,296.768z"/>
				</g>
				<g>
					<path style="fill:#898888;" d="M348.676,288.653v0.741l0.556-0.057l0.131,0.357l-0.568,0.036l0.568,0.69l-0.131,0.206
						l-0.562-0.701l0.006,0.744l-0.263-0.152l0.006-0.737l-0.561,0.053l-0.132-0.357l0.562-0.039l-0.562-0.688l0.132-0.212
						l0.561,0.708l-0.006-0.744L348.676,288.653z"/>
					<path style="fill:#898888;" d="M351.24,290.133v0.741l0.556-0.057l0.131,0.357l-0.568,0.036l0.568,0.69l-0.131,0.206
						l-0.562-0.701l0.006,0.744l-0.263-0.152l0.006-0.737l-0.561,0.053l-0.132-0.357l0.562-0.039l-0.562-0.688l0.132-0.212
						l0.561,0.708l-0.006-0.744L351.24,290.133z"/>
					<path style="fill:#898888;" d="M353.805,291.614v0.741l0.556-0.057l0.131,0.357l-0.568,0.036l0.568,0.691l-0.131,0.206
						l-0.562-0.701l0.006,0.744l-0.263-0.152l0.006-0.737l-0.562,0.053l-0.132-0.357l0.562-0.039l-0.562-0.688l0.132-0.212
						l0.562,0.708l-0.006-0.744L353.805,291.614z"/>
					<path style="fill:#898888;" d="M356.37,293.095v0.741l0.556-0.057l0.131,0.357l-0.568,0.036l0.568,0.691l-0.131,0.206
						l-0.562-0.701l0.006,0.744l-0.263-0.152l0.006-0.737l-0.562,0.053l-0.132-0.357l0.562-0.039l-0.562-0.688l0.132-0.212
						l0.562,0.708l-0.006-0.744L356.37,293.095z"/>
					<path style="fill:#898888;" d="M358.934,294.576v0.741l0.556-0.057l0.131,0.357l-0.568,0.036l0.568,0.69l-0.131,0.206
						l-0.562-0.701l0.006,0.744l-0.263-0.152l0.006-0.737l-0.561,0.053l-0.132-0.357l0.562-0.039l-0.562-0.688l0.132-0.212
						l0.561,0.708l-0.006-0.744L358.934,294.576z"/>
					<path style="fill:#898888;" d="M361.499,296.056v0.741l0.556-0.057l0.131,0.357l-0.568,0.036l0.568,0.691l-0.131,0.206
						l-0.562-0.701l0.006,0.744l-0.263-0.152l0.006-0.737l-0.561,0.053l-0.132-0.357l0.562-0.039l-0.562-0.688l0.132-0.212
						l0.561,0.708l-0.006-0.744L361.499,296.056z"/>
					<path style="fill:#898888;" d="M364.064,297.537v0.741l0.556-0.057l0.131,0.357l-0.568,0.036l0.568,0.691l-0.131,0.206
						l-0.562-0.701l0.006,0.744l-0.263-0.152l0.006-0.737l-0.561,0.053l-0.132-0.357l0.562-0.039l-0.562-0.688l0.132-0.212
						l0.561,0.708l-0.006-0.744L364.064,297.537z"/>
					<path style="fill:#898888;" d="M366.628,299.018v0.741l0.556-0.057l0.131,0.357l-0.568,0.036l0.568,0.691l-0.131,0.206
						l-0.562-0.701l0.006,0.744l-0.263-0.152l0.006-0.737l-0.561,0.053l-0.132-0.357l0.562-0.039l-0.562-0.688l0.132-0.212
						l0.561,0.708l-0.006-0.744L366.628,299.018z"/>
					<path style="fill:#898888;" d="M369.193,300.498v0.741l0.556-0.057l0.131,0.357l-0.568,0.036l0.568,0.691l-0.131,0.205
						l-0.562-0.701l0.006,0.744l-0.263-0.152l0.006-0.737l-0.561,0.053l-0.132-0.357l0.562-0.039l-0.562-0.688l0.132-0.212
						l0.561,0.708l-0.006-0.744L369.193,300.498z"/>
					<path style="fill:#898888;" d="M371.758,301.979v0.741l0.556-0.057l0.131,0.357l-0.568,0.036l0.568,0.69l-0.131,0.206
						l-0.562-0.701l0.006,0.744l-0.263-0.152l0.006-0.737l-0.561,0.053l-0.132-0.357l0.562-0.039l-0.562-0.688l0.132-0.212
						l0.561,0.708l-0.006-0.744L371.758,301.979z"/>
					<path style="fill:#898888;" d="M374.323,303.46v0.741l0.556-0.057l0.131,0.357l-0.568,0.036l0.568,0.691l-0.131,0.206
						l-0.562-0.701l0.006,0.744l-0.263-0.152l0.006-0.737l-0.561,0.053l-0.132-0.357l0.562-0.039l-0.562-0.688l0.132-0.212
						l0.561,0.708l-0.006-0.744L374.323,303.46z"/>
					<path style="fill:#898888;" d="M376.887,304.94v0.741l0.556-0.057l0.131,0.357l-0.568,0.036l0.568,0.691l-0.131,0.205
						l-0.562-0.701l0.006,0.744l-0.263-0.152l0.006-0.737l-0.561,0.053l-0.132-0.357l0.562-0.039l-0.562-0.688l0.132-0.212
						l0.561,0.708l-0.006-0.744L376.887,304.94z"/>
					<path style="fill:#898888;" d="M379.452,306.421v0.741l0.556-0.057l0.131,0.357l-0.568,0.036l0.568,0.691l-0.131,0.206
						l-0.562-0.701l0.006,0.744l-0.263-0.152l0.006-0.737l-0.561,0.053l-0.132-0.357l0.562-0.039l-0.562-0.688l0.132-0.212
						l0.561,0.708l-0.006-0.744L379.452,306.421z"/>
					<path style="fill:#898888;" d="M382.017,307.902v0.741l0.556-0.057l0.131,0.357l-0.568,0.036l0.568,0.691l-0.131,0.206
						l-0.562-0.701l0.006,0.744l-0.263-0.152l0.006-0.737l-0.561,0.053l-0.132-0.357l0.562-0.039l-0.562-0.688l0.132-0.212
						l0.561,0.708l-0.006-0.744L382.017,307.902z"/>
					<path style="fill:#898888;" d="M384.581,309.383v0.741l0.556-0.057l0.131,0.357l-0.568,0.036l0.568,0.69l-0.131,0.206
						l-0.562-0.701l0.006,0.744l-0.263-0.152l0.006-0.737l-0.561,0.053l-0.132-0.357l0.562-0.039l-0.562-0.688l0.132-0.212
						l0.561,0.708l-0.006-0.744L384.581,309.383z"/>
					<path style="fill:#898888;" d="M387.146,310.863v0.741l0.556-0.057l0.131,0.357l-0.568,0.036l0.568,0.691l-0.131,0.206
						l-0.562-0.701l0.006,0.744l-0.263-0.152l0.006-0.737l-0.561,0.053l-0.132-0.357l0.562-0.039l-0.562-0.688l0.132-0.212
						l0.561,0.708l-0.006-0.744L387.146,310.863z"/>
					<path style="fill:#898888;" d="M389.711,312.344v0.741l0.556-0.057l0.131,0.357l-0.568,0.036l0.568,0.691l-0.131,0.206
						l-0.562-0.701l0.006,0.744l-0.263-0.152l0.006-0.737l-0.561,0.053l-0.132-0.357l0.562-0.039l-0.562-0.688l0.132-0.212
						l0.561,0.708l-0.006-0.744L389.711,312.344z"/>
					<path style="fill:#898888;" d="M392.275,313.825v0.741l0.556-0.057l0.131,0.357l-0.568,0.036l0.568,0.69l-0.131,0.206
						l-0.562-0.701l0.006,0.744l-0.263-0.152l0.006-0.737l-0.561,0.053l-0.132-0.357l0.562-0.039l-0.562-0.688l0.132-0.212
						l0.561,0.708l-0.006-0.744L392.275,313.825z"/>
					<path style="fill:#898888;" d="M394.84,315.306v0.741l0.556-0.057l0.131,0.357l-0.568,0.036l0.568,0.69l-0.131,0.206
						l-0.562-0.701l0.006,0.744l-0.263-0.152l0.006-0.737l-0.562,0.053l-0.132-0.357l0.562-0.039l-0.562-0.688l0.132-0.212
						l0.562,0.708l-0.006-0.744L394.84,315.306z"/>
					<path style="fill:#898888;" d="M397.405,316.786v0.741l0.556-0.057l0.131,0.357l-0.567,0.036l0.567,0.69l-0.131,0.206
						l-0.562-0.701l0.006,0.744l-0.263-0.152l0.006-0.737l-0.561,0.053l-0.132-0.357l0.562-0.039l-0.562-0.688l0.132-0.212
						l0.561,0.708l-0.006-0.744L397.405,316.786z"/>
				</g>
			</g>
		</g>
		<g>
			<g>
				<g style="enable-background:new    ;">
					<g>
						
							<linearGradient id="SVGID_00000074401699616615718470000004944185864683376002_" gradientUnits="userSpaceOnUse" x1="395.9888" y1="353.6601" x2="367.9066" y2="401.6159">
							<stop  offset="0" style="stop-color:#FFE30B"/>
							<stop  offset="1" style="stop-color:#FF712F"/>
						</linearGradient>
						<polygon style="fill:url(#SVGID_00000074401699616615718470000004944185864683376002_);" points="400.447,332.295 
							412.508,346.911 379.208,396.068 375.868,383.326 367.148,381.452 						"/>
					</g>
					<g>
						
							<linearGradient id="SVGID_00000041265050552069251000000000885554167947173785_" gradientUnits="userSpaceOnUse" x1="400.4472" y1="339.1784" x2="413.9687" y2="339.1784">
							<stop  offset="0" style="stop-color:#FFE30B"/>
							<stop  offset="1" style="stop-color:#FF712F"/>
						</linearGradient>
						<polygon style="fill:url(#SVGID_00000041265050552069251000000000885554167947173785_);" points="400.447,332.295 
							401.908,331.446 413.969,346.062 412.508,346.911 						"/>
					</g>
					<g>
						
							<linearGradient id="SVGID_00000072277395665335966870000008829175352202178969_" gradientUnits="userSpaceOnUse" x1="397.2588" y1="325.6638" x2="397.2588" y2="383.6022">
							<stop  offset="0" style="stop-color:#FFE30B"/>
							<stop  offset="1" style="stop-color:#FF712F"/>
						</linearGradient>
						<polygon style="fill:url(#SVGID_00000072277395665335966870000008829175352202178969_);" points="412.508,346.911 
							415.309,346.19 382.01,395.347 379.208,396.068 						"/>
					</g>
				</g>
			</g>
			<g>
				<g style="enable-background:new    ;">
					<g>
						
							<linearGradient id="SVGID_00000152979019150665023870000016390338432127192716_" gradientUnits="userSpaceOnUse" x1="406.2361" y1="402.6111" x2="415.9328" y2="402.6111">
							<stop  offset="0" style="stop-color:#FFE30B"/>
							<stop  offset="1" style="stop-color:#FF712F"/>
						</linearGradient>
						<polygon style="fill:url(#SVGID_00000152979019150665023870000016390338432127192716_);" points="414.179,400.271 
							415.933,399.252 407.99,404.951 406.236,405.97 						"/>
					</g>
					<g>
						
							<linearGradient id="SVGID_00000119796248835370709800000001186794002665054861_" gradientUnits="userSpaceOnUse" x1="388.6682" y1="321.6183" x2="418.4785" y2="423.3624">
							<stop  offset="0" style="stop-color:#FFE30B"/>
							<stop  offset="1" style="stop-color:#FF712F"/>
						</linearGradient>
						<polygon style="fill:url(#SVGID_00000119796248835370709800000001186794002665054861_);" points="402.91,345.835 
							423.641,405.137 414.179,400.271 406.236,405.97 385.506,346.669 						"/>
					</g>
					<g>
						
							<linearGradient id="SVGID_00000005239950195212677930000013468357745132225469_" gradientUnits="userSpaceOnUse" x1="391.5465" y1="351.8234" x2="416.1948" y2="377.0681">
							<stop  offset="0" style="stop-color:#FFE30B"/>
							<stop  offset="1" style="stop-color:#FF712F"/>
						</linearGradient>
						<polygon style="fill:url(#SVGID_00000005239950195212677930000013468357745132225469_);" points="402.91,345.835 
							404.664,344.816 425.395,404.117 423.641,405.137 						"/>
					</g>
					<g>
						
							<linearGradient id="SVGID_00000057870330905862018050000008507575563721409694_" gradientUnits="userSpaceOnUse" x1="385.5058" y1="345.7425" x2="404.6644" y2="345.7425">
							<stop  offset="0" style="stop-color:#FFE30B"/>
							<stop  offset="1" style="stop-color:#FF712F"/>
						</linearGradient>
						<polygon style="fill:url(#SVGID_00000057870330905862018050000008507575563721409694_);" points="385.506,346.669 
							387.26,345.65 404.664,344.816 402.91,345.835 						"/>
					</g>
				</g>
			</g>
			<g>
				<g>
					
						<linearGradient id="SVGID_00000122691963487102111100000008662421422639911840_" gradientUnits="userSpaceOnUse" x1="329.2568" y1="252.2775" x2="397.7415" y2="383.7479">
						<stop  offset="0" style="stop-color:#FFE30B"/>
						<stop  offset="1" style="stop-color:#FF712F"/>
					</linearGradient>
					<path style="fill:url(#SVGID_00000122691963487102111100000008662421422639911840_);" d="M372.418,333.193l-1.754,1.019
						c0.033-0.019,0.067-0.037,0.103-0.052c0.036-0.016,0.072-0.034,0.105-0.053l1.754-1.019c-0.034,0.02-0.069,0.037-0.105,0.053
						C372.485,333.157,372.451,333.174,372.418,333.193z"/>
					
						<linearGradient id="SVGID_00000000191770545394221650000001084574815615762590_" gradientUnits="userSpaceOnUse" x1="331.6696" y1="251.0622" x2="400.1285" y2="382.4832">
						<stop  offset="0" style="stop-color:#FFE30B"/>
						<stop  offset="1" style="stop-color:#FF712F"/>
					</linearGradient>
					<path style="fill:url(#SVGID_00000000191770545394221650000001084574815615762590_);" d="M392.376,369.784
						c-0.059,0.055-0.122,0.102-0.188,0.14l1.754-1.019c0.066-0.038,0.129-0.085,0.188-0.14c0.057-0.053,0.118-0.097,0.181-0.134
						l-1.754,1.019C392.493,369.687,392.433,369.732,392.376,369.784z"/>
					
						<linearGradient id="SVGID_00000050648796260897365620000000298208056593601929_" gradientUnits="userSpaceOnUse" x1="332.6138" y1="250.5688" x2="401.0716" y2="381.9876">
						<stop  offset="0" style="stop-color:#FFE30B"/>
						<stop  offset="1" style="stop-color:#FF712F"/>
					</linearGradient>
					<path style="fill:url(#SVGID_00000050648796260897365620000000298208056593601929_);" d="M371.937,325.211l-1.754,1.019
						c0.175-0.101,0.386-0.152,0.634-0.138c0.242,0.013,0.452-0.037,0.626-0.139l1.754-1.019c-0.174,0.101-0.384,0.151-0.626,0.138
						C372.323,325.06,372.111,325.11,371.937,325.211z"/>
					
						<linearGradient id="SVGID_00000124127143158975250000000013350105610474586550_" gradientUnits="userSpaceOnUse" x1="335.7865" y1="248.9095" x2="404.2491" y2="380.3376">
						<stop  offset="0" style="stop-color:#FFE30B"/>
						<stop  offset="1" style="stop-color:#FF712F"/>
					</linearGradient>
					<path style="fill:url(#SVGID_00000124127143158975250000000013350105610474586550_);" d="M399.391,373.201
						c-0.111,0.282-0.278,0.479-0.482,0.598l1.754-1.019c0.204-0.119,0.371-0.315,0.482-0.598c0.11-0.277,0.277-0.473,0.482-0.592
						l-1.754,1.019C399.667,372.728,399.5,372.924,399.391,373.201z"/>
					
						<linearGradient id="SVGID_00000151529349106514260230000015522153902384337814_" gradientUnits="userSpaceOnUse" x1="336.9493" y1="248.3045" x2="405.4113" y2="379.7312">
						<stop  offset="0" style="stop-color:#FFE30B"/>
						<stop  offset="1" style="stop-color:#FF712F"/>
					</linearGradient>
					<path style="fill:url(#SVGID_00000151529349106514260230000015522153902384337814_);" d="M374.69,318.567
						c-0.498-0.214-0.916-0.2-1.227-0.019l-1.754,1.019c0.312-0.181,0.729-0.195,1.227,0.019c0.491,0.21,0.913,0.197,1.23,0.013
						l1.754-1.019C375.603,318.764,375.181,318.777,374.69,318.567z"/>
					
						<linearGradient id="SVGID_00000097501909237955514160000014215685189762273443_" gradientUnits="userSpaceOnUse" x1="340.6118" y1="246.387" x2="409.0782" y2="377.8224">
						<stop  offset="0" style="stop-color:#FFE30B"/>
						<stop  offset="1" style="stop-color:#FF712F"/>
					</linearGradient>
					<path style="fill:url(#SVGID_00000097501909237955514160000014215685189762273443_);" d="M405.941,373.995
						c-0.03,0.62-0.26,1.028-0.603,1.228l1.754-1.019c0.343-0.199,0.573-0.608,0.603-1.228c0.031-0.607,0.261-1.02,0.608-1.222
						l-1.754,1.019C406.201,372.975,405.971,373.388,405.941,373.995z"/>
					
						<linearGradient id="SVGID_00000081635328602347049590000003973694446606791845_" gradientUnits="userSpaceOnUse" x1="341.8865" y1="245.7318" x2="410.349" y2="377.1597">
						<stop  offset="0" style="stop-color:#FFE30B"/>
						<stop  offset="1" style="stop-color:#FF712F"/>
					</linearGradient>
					<path style="fill:url(#SVGID_00000081635328602347049590000003973694446606791845_);" d="M379.058,314.45
						c-0.12-0.07-0.243-0.152-0.367-0.248c-0.125-0.097-0.248-0.179-0.368-0.249c-0.584-0.337-1.107-0.361-1.487-0.141l-1.754,1.019
						c0.379-0.22,0.902-0.197,1.487,0.141c0.12,0.07,0.243,0.152,0.368,0.249c0.124,0.096,0.246,0.179,0.367,0.248
						c0.58,0.335,1.112,0.366,1.497,0.142l1.754-1.019C380.17,314.816,379.638,314.785,379.058,314.45z"/>
					
						<linearGradient id="SVGID_00000004533962265666857910000018310557222700990132_" gradientUnits="userSpaceOnUse" x1="345.709" y1="243.7388" x2="414.1725" y2="375.1685">
						<stop  offset="0" style="stop-color:#FFE30B"/>
						<stop  offset="1" style="stop-color:#FF712F"/>
					</linearGradient>
					<path style="fill:url(#SVGID_00000004533962265666857910000018310557222700990132_);" d="M411.442,372.099
						c0.19,1.001-0.064,1.696-0.555,1.981l1.754-1.019c0.491-0.285,0.745-0.98,0.555-1.981c-0.184-0.962,0.049-1.667,0.545-1.955
						l-1.754,1.019C411.491,370.432,411.258,371.137,411.442,372.099z"/>
					
						<linearGradient id="SVGID_00000013177894130256666690000000466926903132628410_" gradientUnits="userSpaceOnUse" x1="346.9858" y1="243.0764" x2="415.4476" y2="374.5028">
						<stop  offset="0" style="stop-color:#FFE30B"/>
						<stop  offset="1" style="stop-color:#FF712F"/>
					</linearGradient>
					<path style="fill:url(#SVGID_00000013177894130256666690000000466926903132628410_);" d="M385.176,313.186
						c-0.318-0.184-0.643-0.455-0.951-0.814c-0.315-0.367-0.64-0.639-0.957-0.822c-0.571-0.33-1.113-0.368-1.505-0.14l-1.754,1.019
						c0.392-0.228,0.934-0.19,1.505,0.14c0.317,0.183,0.643,0.456,0.957,0.822c0.308,0.358,0.633,0.63,0.951,0.814
						c0.567,0.327,1.114,0.377,1.511,0.146l1.754-1.019C386.29,313.564,385.743,313.514,385.176,313.186z"/>
					
						<linearGradient id="SVGID_00000087393465907473795740000009076769302153291160_" gradientUnits="userSpaceOnUse" x1="350.6429" y1="241.1715" x2="419.1053" y2="372.5991">
						<stop  offset="0" style="stop-color:#FFE30B"/>
						<stop  offset="1" style="stop-color:#FF712F"/>
					</linearGradient>
					<path style="fill:url(#SVGID_00000087393465907473795740000009076769302153291160_);" d="M417.473,363.869l-1.754,1.019
						c-0.655,0.38-0.837,1.492-0.316,2.79c0.538,1.339,0.325,2.421-0.319,2.795l1.754-1.019c0.644-0.374,0.857-1.456,0.319-2.795
						C416.635,365.361,416.818,364.25,417.473,363.869z"/>
					
						<linearGradient id="SVGID_00000021801071685775248410000009223112677218202244_" gradientUnits="userSpaceOnUse" x1="355.8727" y1="238.446" x2="424.3356" y2="369.8746">
						<stop  offset="0" style="stop-color:#FFE30B"/>
						<stop  offset="1" style="stop-color:#FF712F"/>
					</linearGradient>
					<path style="fill:url(#SVGID_00000021801071685775248410000009223112677218202244_);" d="M419.848,356.283
						c1-0.581,0.745-2.767-0.623-4.273c-1.264-1.394-1.63-3.477-0.736-4.193c1.069-0.852,0.313-3.538-1.339-4.736
						c-1.382-1.005-2.209-3.141-1.67-4.311c0.597-1.289-0.47-3.636-1.927-4.477c-0.12-0.069-0.243-0.129-0.368-0.176
						c-0.124-0.047-0.246-0.106-0.367-0.175c-1.215-0.701-2.213-2.489-2.089-3.87c0.129-1.428-0.915-3.194-2.091-3.873
						c-0.317-0.183-0.643-0.287-0.959-0.284c-0.309,0.002-0.634-0.102-0.952-0.285c-0.961-0.555-1.86-1.838-2.067-3.134
						c-0.212-1.338-1.125-2.593-2.069-3.137c-0.514-0.297-1.037-0.383-1.461-0.156c-0.417,0.223-0.945,0.139-1.468-0.163
						c-0.736-0.425-1.46-1.282-1.851-2.327c-0.398-1.071-1.121-1.909-1.845-2.327c-0.543-0.313-1.086-0.391-1.493-0.154
						l-1.404,0.816c-0.258-0.027-0.535-0.123-0.814-0.284c-0.523-0.302-1.05-0.827-1.464-1.53c-0.421-0.714-0.943-1.231-1.457-1.528
						c-0.561-0.324-1.113-0.385-1.515-0.152l-1.754,1.019c0.401-0.233,0.953-0.172,1.515,0.152c0.514,0.297,1.036,0.814,1.457,1.528
						c0.414,0.703,0.941,1.229,1.464,1.53c0.553,0.319,1.1,0.388,1.507,0.152l1.398-0.813c0.257,0.028,0.531,0.125,0.806,0.283
						c0.724,0.418,1.448,1.256,1.845,2.327c0.391,1.045,1.116,1.902,1.851,2.327c0.523,0.302,1.051,0.385,1.468,0.163
						c0.424-0.226,0.947-0.141,1.461,0.156c0.943,0.545,1.856,1.799,2.069,3.137c0.207,1.297,1.107,2.58,2.067,3.135
						c0.318,0.184,0.643,0.288,0.952,0.285c0.315-0.003,0.642,0.101,0.959,0.284c1.176,0.679,2.22,2.444,2.091,3.873
						c-0.125,1.381,0.874,3.169,2.089,3.87c0.121,0.07,0.243,0.128,0.367,0.175c0.125,0.047,0.248,0.107,0.368,0.176
						c1.457,0.841,2.523,3.189,1.927,4.478c-0.539,1.17,0.288,3.306,1.67,4.311c1.652,1.198,2.408,3.884,1.339,4.736
						c-0.893,0.716-0.528,2.798,0.736,4.193c1.165,1.283,1.514,3.049,0.977,3.907l-1.068,0.621c-0.829,0.482-0.83,2.096,0.094,3.571
						c0.954,1.531,0.895,3.114,0.089,3.583l1.754-1.019c0.806-0.468,0.865-2.052-0.089-3.582c-0.76-1.214-0.885-2.512-0.446-3.206
						L419.848,356.283z"/>
					<g>
						
							<linearGradient id="SVGID_00000139257675405575852150000015303317196278486702_" gradientUnits="userSpaceOnUse" x1="393.1961" y1="308.9446" x2="395.1403" y2="376.7742">
							<stop  offset="0" style="stop-color:#FFE30B"/>
							<stop  offset="1" style="stop-color:#FF712F"/>
						</linearGradient>
						<path style="fill:url(#SVGID_00000139257675405575852150000015303317196278486702_);" d="M394.212,315.404
							c0.724,0.418,1.448,1.256,1.845,2.327c0.391,1.045,1.116,1.902,1.851,2.327c0.523,0.302,1.051,0.385,1.468,0.163
							c0.424-0.226,0.947-0.141,1.461,0.156c0.943,0.545,1.856,1.799,2.069,3.137c0.207,1.297,1.107,2.58,2.067,3.135
							c0.318,0.184,0.643,0.288,0.952,0.285c0.316-0.003,0.642,0.101,0.959,0.284c1.176,0.679,2.22,2.444,2.091,3.873
							c-0.125,1.381,0.874,3.169,2.089,3.87c0.121,0.07,0.243,0.128,0.367,0.175c0.125,0.047,0.248,0.107,0.368,0.176
							c1.457,0.841,2.523,3.189,1.927,4.477c-0.539,1.17,0.288,3.306,1.67,4.311c1.652,1.198,2.408,3.884,1.339,4.736
							c-0.893,0.716-0.528,2.798,0.736,4.193c1.513,1.666,1.665,4.162,0.263,4.401c-1.168,0.198-1.3,2.035-0.26,3.697
							c1.241,1.991,0.768,4.071-0.833,3.671c-1.341-0.335-1.956,1.096-1.239,2.882c0.85,2.114-0.175,3.588-1.809,2.645
							c-1.468-0.849-2.481,0.049-2.151,1.775c0.34,1.787-0.738,2.598-2.044,1.845c-0.221-0.128-0.448-0.3-0.676-0.519
							c-0.222-0.212-0.445-0.38-0.664-0.507c-1.085-0.626-2.052-0.214-2.117,1.077c-0.065,1.338-1.061,1.691-2.118,1.081
							c-0.414-0.239-0.838-0.626-1.219-1.16c-0.375-0.524-0.801-0.913-1.221-1.156c-0.846-0.489-1.667-0.378-1.992,0.441
							c-0.331,0.841-1.157,0.923-1.99,0.442c-0.618-0.357-1.24-1.023-1.667-1.919c-0.422-0.881-1.049-1.561-1.676-1.923
							c-0.628-0.362-1.256-0.407-1.682-0.015c-0.431,0.401-1.054,0.348-1.673-0.009c-0.833-0.481-1.657-1.515-1.986-2.737
							c-0.316-1.189-1.132-2.245-1.978-2.733c-0.42-0.242-0.846-0.345-1.223-0.255c-0.383,0.093-0.807-0.009-1.221-0.249
							c-1.057-0.611-2.048-2.111-2.105-3.519c-0.058-1.363-1.019-2.888-2.104-3.515c-0.219-0.126-0.442-0.216-0.665-0.261
							c-0.228-0.044-0.456-0.134-0.677-0.262c-1.306-0.754-2.376-2.806-2.027-4.195c0.339-1.34-0.666-3.403-2.034-4.193
							c-1.734-1-2.747-3.65-1.888-4.778c0.724-0.954,0.12-3.089-1.219-4.301c-1.598-1.447-2.058-4.065-0.809-4.619
							c1.046-0.457,0.925-2.441-0.238-3.984c-1.395-1.854-1.23-4.167,0.287-4.083c1.268,0.067,1.644-1.587,0.758-3.33
							c-1.06-2.082-0.291-3.887,1.362-3.176c1.383,0.591,2.219-0.584,1.689-2.372c-0.587-1.972,0.489-3.083,1.946-2.242
							c0.12,0.07,0.243,0.152,0.368,0.249c0.124,0.096,0.246,0.179,0.366,0.248c1.215,0.701,2.22,0.071,2.104-1.449
							c-0.121-1.573,0.93-2.128,2.106-1.45c0.317,0.183,0.643,0.456,0.957,0.822c0.308,0.358,0.633,0.63,0.951,0.813
							c0.961,0.555,1.864,0.312,2.078-0.741c0.219-1.089,1.137-1.287,2.08-0.742c0.514,0.297,1.036,0.814,1.457,1.528
							c0.414,0.703,0.941,1.229,1.464,1.53c0.736,0.425,1.463,0.406,1.858-0.185C392.762,314.987,393.487,314.985,394.212,315.404z"
							/>
					</g>
				</g>
			</g>
			
				<ellipse transform="matrix(0.8633 -0.5047 0.5047 0.8633 -118.9366 245.6312)" style="fill:#FFFFFF;" cx="393.966" cy="342.372" rx="15.609" ry="27.036"/>
			
				<linearGradient id="SVGID_00000133509414171623019880000014650395989341304461_" gradientUnits="userSpaceOnUse" x1="331.6814" y1="280.0876" x2="401.378" y2="349.7843">
				<stop  offset="0" style="stop-color:#FFE30B"/>
				<stop  offset="1" style="stop-color:#FF712F"/>
			</linearGradient>
			<path style="fill:url(#SVGID_00000133509414171623019880000014650395989341304461_);" d="M402.574,364.011
				c-2.121,0-4.579-0.771-7.108-2.231c-9.582-5.532-17.677-19.49-17.677-30.48c0-6.617,2.83-10.567,7.569-10.567
				c2.121,0,4.578,0.771,7.107,2.231c9.582,5.533,17.678,19.49,17.678,30.48C410.143,360.061,407.313,364.011,402.574,364.011z"/>
		</g>
		<g>
			<g>
				<g>
					<g style="enable-background:new    ;">
						
							<linearGradient id="SVGID_00000062896050588054916570000013236374464253188771_" gradientUnits="userSpaceOnUse" x1="100.1458" y1="231.8783" x2="193.3486" y2="325.0811">
							<stop  offset="0" style="stop-color:#FFE30B"/>
							<stop  offset="1" style="stop-color:#FF712F"/>
						</linearGradient>
						<polygon style="fill:url(#SVGID_00000062896050588054916570000013236374464253188771_);" points="107.761,282.288 
							107.951,220.854 164.65,253.589 164.461,315.023 						"/>
						<g>
							
								<linearGradient id="SVGID_00000181800265693392395340000016892116318616595589_" gradientUnits="userSpaceOnUse" x1="93.6064" y1="183.4326" x2="165.6961" y2="255.5223">
								<stop  offset="0" style="stop-color:#FFE30B"/>
								<stop  offset="1" style="stop-color:#FF712F"/>
							</linearGradient>
							<polygon style="fill:url(#SVGID_00000181800265693392395340000016892116318616595589_);" points="107.951,220.854 
								121.984,212.698 178.684,245.434 164.65,253.589 							"/>
						</g>
						<g>
							
								<linearGradient id="SVGID_00000127740493398831704110000005083780785946410394_" gradientUnits="userSpaceOnUse" x1="104.0444" y1="212.7003" x2="187.7864" y2="296.4424">
								<stop  offset="0" style="stop-color:#FFE30B"/>
								<stop  offset="1" style="stop-color:#FF712F"/>
							</linearGradient>
							<polygon style="fill:url(#SVGID_00000127740493398831704110000005083780785946410394_);" points="164.65,253.589 
								178.684,245.434 178.494,306.867 164.461,315.023 							"/>
						</g>
					</g>
				</g>
				<g>
					<g>
						
							<linearGradient id="SVGID_00000011008811793823381640000002798493853036849285_" gradientUnits="userSpaceOnUse" x1="131.9187" y1="218.7753" x2="136.4423" y2="218.7753">
							<stop  offset="0" style="stop-color:#0763BD"/>
							<stop  offset="1" style="stop-color:#172A7C"/>
						</linearGradient>
						<path style="fill:url(#SVGID_00000011008811793823381640000002798493853036849285_);" d="M131.972,211.314l-0.053,18.839
							l3.652-2.122l0.053-18.839c0.003-0.881,0.315-1.502,0.818-1.794l-3.652,2.122
							C132.287,209.812,131.975,210.433,131.972,211.314z"/>
						
							<linearGradient id="SVGID_00000042007227991244364400000003509394299238251671_" gradientUnits="userSpaceOnUse" x1="129.3862" y1="222.4976" x2="159.5543" y2="222.4976">
							<stop  offset="0" style="stop-color:#0763BD"/>
							<stop  offset="1" style="stop-color:#172A7C"/>
						</linearGradient>
						<path style="fill:url(#SVGID_00000042007227991244364400000003509394299238251671_);" d="M151.975,209.877l-13.529-7.811
							c-2.11-1.218-4.024-1.329-5.408-0.525l-3.652,2.122c1.383-0.804,3.298-0.693,5.408,0.525l13.529,7.811
							c4.194,2.421,7.593,8.312,7.58,13.131l-0.053,18.839l3.652-2.122l0.053-18.839
							C159.568,218.189,156.169,212.298,151.975,209.877z"/>
						<g>
							
								<linearGradient id="SVGID_00000014622440036730256390000015615894018505512869_" gradientUnits="userSpaceOnUse" x1="127.1113" y1="223.5588" x2="155.9023" y2="223.5588">
								<stop  offset="0.0425" style="stop-color:#E3EBFF"/>
								<stop  offset="1" style="stop-color:#978EF0"/>
							</linearGradient>
							<path style="fill:url(#SVGID_00000014622440036730256390000015615894018505512869_);" d="M148.323,211.999
								c4.194,2.421,7.593,8.312,7.58,13.131l-0.053,18.839l-4.805-2.774l0.053-18.839c0.005-1.772-1.248-3.943-2.79-4.833
								l-13.529-7.811c-1.542-0.89-2.801-0.17-2.806,1.602l-0.053,18.839l-4.807-2.775l0.053-18.839
								c0.014-4.819,3.435-6.772,7.629-4.351L148.323,211.999z"/>
						</g>
					</g>
				</g>
			</g>
			
				<linearGradient id="SVGID_00000094599944969834532400000016947314773250146974_" gradientUnits="userSpaceOnUse" x1="59.7821" y1="192.1326" x2="137.3424" y2="269.693">
				<stop  offset="0" style="stop-color:#0763BD"/>
				<stop  offset="1" style="stop-color:#172A7C"/>
			</linearGradient>
			<path style="fill:url(#SVGID_00000094599944969834532400000016947314773250146974_);" d="M141.725,265.249
				c1.658-0.415,2.742-2.02,2.742-4.545c0-4.174-2.949-9.261-6.587-11.361c-3.638-2.1-6.587-0.419-6.587,3.755
				c0,2.526,1.083,5.382,2.742,7.712l-6.195,20.77l10.039,5.796l10.039,5.796L141.725,265.249z"/>
		</g>
		<g>
			<g>
				
					<linearGradient id="SVGID_00000041993561179554745450000015842932052665853615_" gradientUnits="userSpaceOnUse" x1="286.9524" y1="348.3542" x2="352.2445" y2="413.6463">
					<stop  offset="0" style="stop-color:#0763BD"/>
					<stop  offset="1" style="stop-color:#172A7C"/>
				</linearGradient>
				<path style="fill:url(#SVGID_00000041993561179554745450000015842932052665853615_);" d="M334.715,365.776l-52.061-30.057
					c-0.915-0.528-1.744-0.577-2.342-0.229l-5.958,3.462c0.598-0.348,1.427-0.299,2.342,0.229l52.061,30.057
					c1.815,1.048,3.287,3.598,3.281,5.684l-0.154,45.875c-0.003,1.04-0.371,1.771-0.963,2.115l5.958-3.462
					c0.592-0.344,0.96-1.076,0.963-2.115l0.154-45.874C338.003,369.374,336.531,366.824,334.715,365.776z"/>
				<g>
					
						<linearGradient id="SVGID_00000127752870236477993120000001473839834584830137_" gradientUnits="userSpaceOnUse" x1="231.4824" y1="309.7763" x2="417.4865" y2="495.7804">
						<stop  offset="0.0425" style="stop-color:#E3EBFF"/>
						<stop  offset="1" style="stop-color:#978EF0"/>
					</linearGradient>
					<path style="fill:url(#SVGID_00000127752870236477993120000001473839834584830137_);" d="M328.758,369.239
						c1.815,1.048,3.287,3.598,3.281,5.684l-0.154,45.875c-0.006,2.092-1.488,2.936-3.303,1.888l-20.17-11.645l-5.882,3.352
						l-5.844-10.122l-20.165-11.642c-1.82-1.051-3.287-3.598-3.281-5.689l0.154-45.874c0.006-2.086,1.483-2.933,3.303-1.882
						L328.758,369.239z"/>
				</g>
			</g>
			<g>
				<path style="fill:#FFFFFF;" d="M286.061,370.172c0,1.952-1.379,2.738-3.08,1.756c-1.701-0.982-3.08-3.36-3.08-5.312
					c0-1.952,1.379-2.738,3.08-1.756C284.682,365.841,286.061,368.22,286.061,370.172z"/>
				<path style="fill:#FFFFFF;" d="M297.998,377.063c0,1.952-1.379,2.738-3.08,1.756c-1.701-0.982-3.08-3.36-3.08-5.312
					c0-1.952,1.379-2.738,3.08-1.756C296.619,372.733,297.998,375.111,297.998,377.063z"/>
				<path style="fill:#FFFFFF;" d="M309.934,383.955c0,1.952-1.379,2.738-3.08,1.756c-1.701-0.982-3.08-3.36-3.08-5.312
					s1.379-2.738,3.08-1.756C308.555,379.625,309.934,382.003,309.934,383.955z"/>
				<path style="fill:#FFFFFF;" d="M321.871,390.846c0,1.952-1.379,2.738-3.08,1.756c-1.701-0.982-3.08-3.36-3.08-5.312
					c0-1.952,1.379-2.738,3.08-1.756C320.492,386.516,321.871,388.895,321.871,390.846z"/>
			</g>
		</g>
		<g>
			<g>
				
					<linearGradient id="SVGID_00000065042095527000554060000008140818536434665383_" gradientUnits="userSpaceOnUse" x1="127.9723" y1="329.6151" x2="129.13" y2="329.6151">
					<stop  offset="0" style="stop-color:#0763BD"/>
					<stop  offset="1" style="stop-color:#172A7C"/>
				</linearGradient>
				<polygon style="fill:url(#SVGID_00000065042095527000554060000008140818536434665383_);" points="129.13,323.96 128.02,318.292 
					127.972,335.27 129.082,340.938 				"/>
				
					<linearGradient id="SVGID_00000070815854632038351800000007781770893812010889_" gradientUnits="userSpaceOnUse" x1="109.5242" y1="349.9927" x2="181.306" y2="349.9927">
					<stop  offset="0" style="stop-color:#0763BD"/>
					<stop  offset="1" style="stop-color:#172A7C"/>
				</linearGradient>
				<path style="fill:url(#SVGID_00000070815854632038351800000007781770893812010889_);" d="M176.908,346.517l-5.241-0.334
					l4.364-3.459l0.048-16.978l-5.798,4.595l-0.045,15.751l-3.118-0.199c-0.755,0.583-1.581,1.143-2.492,1.673
					c-0.913,0.531-1.879,1.011-2.879,1.449l-0.016,5.843l-15.465,2.404l-3.992-5.223c-2.259-0.159-4.488-0.49-6.639-0.978
					c0.512-0.702,1.255-1.361,2.241-1.934c4.124-2.397,10.832-2.397,14.984,0c2.087,1.205,3.13,2.787,3.125,4.367l0.048-16.978
					c0.005-1.58-1.038-3.163-3.125-4.368c-4.151-2.397-10.859-2.397-14.984,0c-2.049,1.191-3.075,2.749-3.079,4.309l-0.041,14.484
					l-7.812,3.33l-6.422-3.707l0.022-7.929c-1.016-1.372-1.676-2.807-1.989-4.263l-9.032-2.297l-0.048,16.978l5.251,1.335
					l-0.028,9.819l12.197,7.042l7.914-3.373c2.372,0.584,4.855,0.963,7.369,1.14l3.991,5.223l16.592-2.579l0.018-6.196
					c0.599-0.291,1.188-0.593,1.752-0.921c0.91-0.529,1.737-1.09,2.492-1.672l9.789,0.624l4.398-9.619l0.048-16.978L176.908,346.517
					z"/>
				<g>
					
						<linearGradient id="SVGID_00000115486523244651735180000014196206056622650810_" gradientUnits="userSpaceOnUse" x1="109.5723" y1="336.4872" x2="181.306" y2="336.4872">
						<stop  offset="0.0425" style="stop-color:#E3EBFF"/>
						<stop  offset="1" style="stop-color:#978EF0"/>
					</linearGradient>
					<path style="fill:url(#SVGID_00000115486523244651735180000014196206056622650810_);" d="M164.627,347.566
						c-0.913,0.531-1.879,1.011-2.879,1.449l1.11,5.668l-16.591,2.579l-3.992-5.223c-2.514-0.177-4.997-0.556-7.369-1.14
						l-7.914,3.373l-12.197-7.042l5.798-4.595c-1.016-1.372-1.676-2.807-1.989-4.263l-9.032-2.297l4.398-9.619l9.789,0.624
						c0.752-0.581,1.578-1.142,2.492-1.672c0.91-0.529,1.876-1.01,2.879-1.449l-1.11-5.668l16.592-2.579l3.991,5.226
						c2.517,0.175,4.997,0.552,7.366,1.138l7.914-3.373l12.197,7.042l-5.798,4.595c1.019,1.37,1.681,2.807,1.992,4.264l9.032,2.293
						l-4.398,9.619l-9.789-0.624C166.365,346.476,165.538,347.036,164.627,347.566z M137.973,340.828
						c4.148,2.395,10.857,2.395,14.981-0.002c4.124-2.397,4.103-6.282-0.046-8.677c-4.151-2.397-10.859-2.397-14.984,0
						C133.8,334.545,133.822,338.431,137.973,340.828"/>
				</g>
			</g>
		</g>
		<g>
			<g style="enable-background:new    ;">
				<g>
					
						<linearGradient id="SVGID_00000107559305482871233400000002166831217616664466_" gradientUnits="userSpaceOnUse" x1="285.1549" y1="375.8922" x2="244.9164" y2="419.6129">
						<stop  offset="0" style="stop-color:#FFE30B"/>
						<stop  offset="1" style="stop-color:#FF712F"/>
					</linearGradient>
					<path style="fill:url(#SVGID_00000107559305482871233400000002166831217616664466_);" d="M278.757,397.278
						c0.989,0.571,1.904,1.169,2.752,1.784l-26.836,11.568l-1.316-19.396C262.536,391.21,271.732,393.222,278.757,397.278z"/>
				</g>
				<g>
					
						<linearGradient id="SVGID_00000090278997046816023520000011525110140821948053_" gradientUnits="userSpaceOnUse" x1="297.4313" y1="460.8952" x2="257.9667" y2="400.5375">
						<stop  offset="0" style="stop-color:#FFE30B"/>
						<stop  offset="1" style="stop-color:#FF712F"/>
					</linearGradient>
					<polygon style="fill:url(#SVGID_00000090278997046816023520000011525110140821948053_);" points="281.509,399.062 
						281.446,421.316 254.609,432.884 254.673,410.63 					"/>
				</g>
				<g>
					
						<linearGradient id="SVGID_00000039123568167831699410000000810559078546147210_" gradientUnits="userSpaceOnUse" x1="253.2935" y1="412.0591" x2="254.6726" y2="412.0591">
						<stop  offset="0" style="stop-color:#FFE30B"/>
						<stop  offset="1" style="stop-color:#FF712F"/>
					</linearGradient>
					<polygon style="fill:url(#SVGID_00000039123568167831699410000000810559078546147210_);" points="254.673,410.63 
						254.609,432.884 253.293,413.489 253.357,391.234 					"/>
				</g>
				<g>
					
						<linearGradient id="SVGID_00000115489572281800407080000016379427705699687852_" gradientUnits="userSpaceOnUse" x1="348.4539" y1="443.6662" x2="263.7401" y2="431.3441">
						<stop  offset="0.0425" style="stop-color:#E3EBFF"/>
						<stop  offset="1" style="stop-color:#6B60D6"/>
					</linearGradient>
					<path style="fill:url(#SVGID_00000115489572281800407080000016379427705699687852_);" d="M289.272,411.982l-0.063,19.807
						c-0.015,5.245-3.46,10.48-10.346,14.482c-13.868,8.059-36.426,8.059-50.389-0.002c-7.024-4.055-10.532-9.379-10.517-14.694
						l0.063-19.807c-0.015,5.315,3.493,10.639,10.517,14.694c13.963,8.062,36.521,8.061,50.389,0.002
						C285.812,422.463,289.257,417.227,289.272,411.982z"/>
				</g>
				<g>
					
						<linearGradient id="SVGID_00000036972880449179431000000008935609036960445359_" gradientUnits="userSpaceOnUse" x1="221.0671" y1="379.295" x2="319.0747" y2="477.3026">
						<stop  offset="0" style="stop-color:#0763BD"/>
						<stop  offset="1" style="stop-color:#172A7C"/>
					</linearGradient>
					<path style="fill:url(#SVGID_00000036972880449179431000000008935609036960445359_);" d="M282.834,400.093
						c9.723,8.048,8.443,19.194-3.909,26.372c-13.868,8.059-36.426,8.059-50.389-0.002c-13.958-8.059-14.032-21.125-0.164-29.184
						c6.328-3.677,14.464-5.671,22.773-5.992l1.48,21.827L282.834,400.093z"/>
				</g>
			</g>
		</g>
	</g>
</g>
</svg>
